HIERARCHY
ROOT Hips
{
	OFFSET 0.000000 0.000000 0.000000
	CHANNELS 6 Xposition Yposition Zposition Zrotation Yrotation Xrotation 
	JOINT LHipJoint
	{
		OFFSET 0.000000 0.000000 0.000000
		CHANNELS 3 Zrotation Yrotation Xrotation
		JOINT LeftUpLeg
		{
			OFFSET 1.363060 -1.794630 0.839290
			CHANNELS 3 Zrotation Yrotation Xrotation
			JOINT LeftLeg
			{
				OFFSET 2.448110 -6.726130 0.000000
				CHANNELS 3 Zrotation Yrotation Xrotation
				JOINT LeftFoot
				{
					OFFSET 2.562200 -7.039590 0.000000
					CHANNELS 3 Zrotation Yrotation Xrotation
					JOINT LeftToeBase
					{
						OFFSET 0.157640 -0.433110 2.322550
						CHANNELS 3 Zrotation Yrotation Xrotation
						End Site
						{
							OFFSET 0.000000 0.000000 0.000000
						}
					}
				}
			}
		}
	}
	JOINT RHipJoint
	{
		OFFSET 0.000000 0.000000 0.000000
		CHANNELS 3 Zrotation Yrotation Xrotation
		JOINT RightUpLeg
		{
			OFFSET -1.305520 -1.794630 0.839290
			CHANNELS 3 Zrotation Yrotation Xrotation
			JOINT RightLeg
			{
				OFFSET -2.542530 -6.985550 0.000000
				CHANNELS 3 Zrotation Yrotation Xrotation
				JOINT RightFoot
				{
					OFFSET -2.568260 -7.056230 0.000000
					CHANNELS 3 Zrotation Yrotation Xrotation
					JOINT RightToeBase
					{
						OFFSET -0.164730 -0.452590 2.363150
						CHANNELS 3 Zrotation Yrotation Xrotation
						End Site
						{
							OFFSET 0.000000 0.000000 0.000000
						}
					}
				}
			}
		}
	}
}
MOTION
Frames: 30
Frame Time: 0.008333
9.898772 16.074369 -4.621445 -157.227078 70.353972 -133.719033 -14.454202 -0.293779 -4.660090 -10.743159 11.017262 -47.134713 4.055587 6.724474 98.742655 3.197963 18.840076 -18.882273 -3.330000 -0.000000 -8.276400 6.898672 -0.837062 2.479280 6.007640 13.571588 -38.823562 1.466757 -2.372652 45.221645 -1.421124 -2.505303 -17.444356 0.679900 0.000000 -68.111700
10.068603 16.178269 -4.734429 -158.216185 70.396781 -134.418343 -14.107720 -0.590917 -4.401532 -11.261381 10.140322 -49.175118 3.719625 6.554712 96.825502 3.180819 18.497132 -19.018505 -3.315000 0.000000 -8.381000 7.025394 -0.876742 2.473738 5.343041 13.477569 -37.625036 1.438536 -2.264956 43.709782 -1.347259 -2.559686 -16.113161 0.557600 -0.000000 -69.418600
10.237984 16.290830 -4.852556 -159.217351 70.444977 -135.116461 -13.748758 -0.871665 -4.131453 -11.709096 9.265305 -51.045764 3.341522 6.360196 94.480340 3.176169 18.196221 -19.041618 -3.269900 0.000000 -8.600800 7.158082 -0.923733 2.451300 4.664665 13.343905 -36.411405 1.399388 -2.160998 42.062537 -1.244392 -2.548634 -14.403203 0.397600 0.000000 -71.011400
10.407160 16.411265 -4.975584 -160.256943 70.492806 -135.852625 -13.380617 -1.129443 -3.851131 -12.082949 8.392581 -52.697174 2.927209 6.137736 91.686599 3.184972 17.939816 -18.953166 -3.196000 0.000000 -8.950000 7.298612 -0.977215 2.407053 3.978477 13.153195 -35.159159 1.349849 -2.061140 40.266862 -1.119938 -2.486247 -12.314507 0.210900 -0.000000 -72.769299
10.576085 16.537966 -5.103302 -161.345062 70.528975 -136.648938 -13.008666 -1.360146 -3.562467 -12.377054 7.522349 -54.087699 2.484778 5.885141 88.434401 3.205921 17.717219 -18.761753 -3.094100 -0.000000 -9.393000 7.446374 -1.035675 2.335963 3.297011 12.892425 -33.852744 1.290909 -1.966431 38.328976 -0.985641 -2.397846 -9.874373 0.011700 -0.000000 -74.597600
10.745114 16.669100 -5.235285 -162.497163 70.544322 -137.528526 -12.637592 -1.559952 -3.265317 -12.590624 6.652497 -55.185506 2.023252 5.599903 84.717044 3.235387 17.506597 -18.465607 -2.959400 0.000001 -9.914800 7.600458 -1.096684 2.236157 2.630758 12.554418 -32.485720 1.223568 -1.877522 36.269964 -0.856022 -2.316867 -7.139929 -0.186600 -0.000000 -76.329900
10.914579 16.802367 -5.371208 -163.709292 70.527269 -138.491847 -12.272903 -1.727180 -2.959198 -12.722323 5.782534 -55.973231 1.553058 5.280678 80.539352 3.267286 17.275356 -18.057757 -2.784000 0.000000 -10.492000 7.757937 -1.157632 2.107231 1.994307 12.138731 -31.062268 1.149442 -1.795255 34.132998 -0.746346 -2.282761 -4.198287 -0.376000 0.000001 -77.783200
11.085114 16.935360 -5.510529 -164.984132 70.470728 -139.542627 -11.918036 -1.860068 -2.642455 -12.779595 4.909785 -56.444297 1.084472 4.925926 75.911823 3.293996 16.987809 -17.521625 -2.558300 0.000000 -11.110300 7.917441 -1.215138 1.950928 1.395270 11.646239 -29.597093 1.069806 -1.720471 31.976771 -0.669759 -2.335308 -1.157676 -0.558300 -0.000000 -78.832300
11.256998 17.065233 -5.652960 -166.278890 70.365792 -140.637751 -11.579493 -1.960926 -2.313754 -12.755372 4.040036 -56.612767 0.628075 4.536967 70.863685 3.305797 16.604219 -16.839276 -2.274200 -0.000000 -11.762800 8.072641 -1.267043 1.769879 0.855855 11.091723 -28.113237 0.987334 -1.653875 29.879587 -0.636050 -2.514668 1.847969 -0.745300 -0.000001 -79.252300
11.430717 17.189567 -5.798242 -167.570051 70.208765 -141.752762 -11.260322 -2.030375 -1.970783 -12.660135 3.173638 -56.493905 0.191735 4.112866 65.423436 3.293516 16.096979 -15.990758 -1.929000 0.000000 -12.462900 8.222401 -1.310759 1.566728 0.380231 10.477716 -26.637478 0.904162 -1.596651 27.921242 -0.648677 -2.846886 4.684246 -0.955600 0.000000 -78.997500
11.606491 17.305907 -5.946202 -168.804922 69.999649 -142.833758 -10.966714 -2.072726 -1.611610 -12.486453 2.320090 -56.117712 -0.218693 3.654600 59.635306 3.247713 15.446393 -14.965636 -1.528100 -0.000001 -13.234700 8.361537 -1.345490 1.344185 -0.014297 9.819734 -25.195923 0.823413 -1.549609 26.182045 -0.706480 -3.350066 7.213655 -1.208700 -0.000000 -77.928100
11.784372 17.412202 -6.097047 -169.928922 69.740139 -143.828393 -10.704883 -2.093521 -1.234242 -12.227837 1.488471 -55.513093 -0.600097 3.161295 53.547528 3.161119 14.652121 -13.765099 -1.087500 -0.000000 -14.111400 8.486567 -1.371653 1.103639 -0.317564 9.127140 -23.807023 0.748514 -1.513802 24.725732 -0.803556 -4.023844 9.323088 -1.516600 0.000001 -76.059100
11.964348 17.506818 -6.250714 -170.910181 69.439318 -144.709127 -10.480212 -2.099808 -0.838009 -11.876403 0.686083 -54.704398 -0.951266 2.630993 47.216039 3.029973 13.735473 -12.406733 -0.631400 0.000000 -15.120500 8.596082 -1.389984 0.844635 -0.527681 8.405187 -22.479192 0.682684 -1.490763 23.598122 -0.930707 -4.844209 10.927158 -1.874800 -0.000001 -73.469600
12.146165 17.588434 -6.407546 -171.706623 69.107829 -145.441712 -10.298944 -2.102780 -0.423814 -11.411473 -0.078084 -53.718272 -1.269848 2.062811 40.714789 2.855367 12.737117 -10.927228 -0.188700 -0.000000 -16.272900 8.687281 -1.403158 0.567117 -0.642082 7.665619 -21.208813 0.629075 -1.481613 22.818865 -1.078087 -5.774044 11.985717 -2.264300 -0.000001 -70.327900
12.329437 17.656055 -6.567640 -172.302018 68.760946 -146.022131 -10.164049 -2.115210 0.003437 -10.813814 -0.799233 -52.576334 -1.550066 1.459227 34.140302 2.645802 11.719669 -9.382176 0.213100 0.000000 -17.545300 8.759893 -1.413817 0.270354 -0.670311 6.914239 -19.982267 0.589837 -1.487957 22.388778 -1.235165 -6.756611 12.501262 -2.650400 0.000000 -66.872300
12.513759 17.709010 -6.731326 -172.671803 68.413548 -146.439460 -10.076567 -2.151295 0.433807 -10.059726 -1.466010 -51.312987 -1.781051 0.832156 27.629223 2.416373 10.751561 -7.847983 0.553200 0.000000 -18.867801 8.811942 -1.426495 -0.042780 -0.619202 6.167987 -18.779519 0.565779 -1.510301 22.287442 -1.393302 -7.739066 12.522760 -2.998200 -0.000000 -63.378400
12.698770 17.746866 -6.898590 -172.818413 68.080621 -146.710618 -10.032348 -2.220156 0.850262 -9.149813 -2.056872 -49.975367 -1.951483 0.205467 21.358249 2.185944 9.889547 -6.419737 0.819599 0.000000 -20.120901 8.843850 -1.445629 -0.367011 -0.503581 5.440056 -17.579790 0.555578 -1.548946 22.485943 -1.544898 -8.669564 12.130531 -3.276600 -0.000000 -60.114099
12.883938 17.769569 -7.069498 -172.736015 67.769477 -146.846630 -10.026167 -2.323887 1.225825 -8.124348 -2.511723 -48.634474 -2.058382 -0.385135 15.546927 1.967873 9.136022 -5.206547 1.003700 0.000000 -21.169900 8.854564 -1.476946 -0.694008 -0.330858 4.750294 -16.357852 0.556470 -1.602832 22.944272 -1.685045 -9.516798 11.427953 -3.470901 -0.000000 -57.299300
13.069048 17.777341 -7.243929 -172.456285 67.481151 -146.888744 -10.048684 -2.452081 1.530347 -7.103454 -2.737975 -47.386253 -2.118550 -0.903504 10.423892 1.763647 8.420467 -4.308814 1.096400 0.000000 -21.930300 8.848894 -1.524416 -1.012135 -0.126595 4.101540 -15.104516 0.563565 -1.670668 23.628827 -1.809443 -10.253962 10.519278 -3.576200 0.000000 -55.081600
13.254087 17.770970 -7.420922 -172.089900 67.216619 -146.948389 -10.085747 -2.586058 1.740209 -6.256765 -2.659808 -46.300405 -2.162869 -1.329794 6.144915 1.568948 7.658069 -3.776049 1.096000 -0.000000 -22.442500 8.839488 -1.586027 -1.314749 0.053967 3.468699 -13.819066 0.569806 -1.752098 24.513991 -1.913736 -10.853388 9.498768 -3.593000 0.000000 -53.523900
13.438558 17.751150 -7.600770 -171.651472 66.965318 -147.031739 -10.132297 -2.712591 1.837592 -5.730547 -2.174400 -45.487256 -2.227191 -1.651774 2.864246 1.368390 6.711421 -3.633794 0.999500 0.000000 -22.817101 8.827495 -1.662949 -1.590487 0.201417 2.861174 -12.513101 0.569343 -1.843027 25.566848 -1.999934 -11.338431 8.457181 -3.547000 -0.000001 -52.628900
13.622729 17.719021 -7.782016 -171.322930 66.727045 -147.289002 -10.170891 -2.814785 1.851060 -5.546185 -1.435243 -44.887452 -2.309020 -1.890676 0.460221 1.189873 5.754672 -3.774887 0.862000 -0.000000 -23.187800 8.832999 -1.742218 -1.848312 0.224269 2.218588 -11.219509 0.555628 -1.946290 26.786768 -2.065248 -11.686788 7.444927 -3.443200 -0.000000 -52.324000
13.806229 17.675042 -7.964693 -171.134678 66.487993 -147.716567 -10.199176 -2.885401 1.813823 -5.617977 -0.589772 -44.475204 -2.391691 -2.056977 -1.155570 1.059922 4.971480 -4.097431 0.729600 -0.000000 -23.579500 8.858403 -1.818802 -2.091322 0.108216 1.535958 -9.976049 0.526067 -2.061258 28.166986 -2.114571 -11.933635 6.499838 -3.306100 0.000000 -52.498200
13.989055 17.619676 -8.147973 -171.157216 66.236435 -148.345061 -10.215774 -2.918753 1.778650 -5.762636 0.094045 -44.124100 -2.432311 -2.168766 -2.206580 1.025457 4.705633 -4.435906 0.657300 -0.000000 -23.965000 8.910658 -1.884168 -2.331196 -0.177163 0.794926 -8.820041 0.479598 -2.190465 29.712469 -2.152681 -12.106248 5.631936 -3.150600 -0.000001 -53.004700
14.170586 17.552643 -8.332594 -171.259029 65.947839 -149.035971 -10.229736 -2.913538 1.723366 -6.039559 0.772190 -44.014240 -2.467577 -2.199356 -2.465826 1.046375 4.715737 -4.802602 0.612100 -0.000001 -24.298001 8.975412 -1.947732 -2.549402 -0.548757 0.046139 -7.781692 0.416459 -2.326794 31.419907 -2.191191 -12.288862 4.843921 -3.005300 0.000001 -53.671200
14.351324 17.474666 -8.516602 -171.574763 65.617181 -149.881877 -10.236698 -2.867984 1.715493 -6.216799 1.073087 -43.905314 -2.432977 -2.180537 -2.319362 1.183706 5.446018 -4.959390 0.659200 -0.000000 -24.604400 9.068407 -1.996583 -2.765540 -1.072852 -0.749858 -6.892022 0.337198 -2.476587 33.303831 -2.231728 -12.480989 4.116542 -2.865800 0.000000 -54.342000
14.531215 17.386134 -8.698877 -172.090612 65.234344 -150.866926 -10.233902 -2.781923 1.734382 -6.382995 1.095470 -43.877948 -2.357758 -2.102446 -1.684702 1.401741 6.683005 -4.861842 0.792500 0.000000 -24.958300 9.190007 -2.033219 -2.969594 -1.731988 -1.576075 -6.161768 0.242069 -2.637072 35.364254 -2.279096 -12.716348 3.432091 -2.737700 0.000000 -54.870800
14.710112 17.287393 -8.878958 -172.730721 64.788862 -151.922946 -10.218871 -2.656981 1.734787 -6.716966 1.086370 -44.121866 -2.297723 -1.944164 -0.348027 1.631541 8.000789 -4.538235 0.986200 -0.000000 -25.478400 9.334173 -2.066275 -3.140827 -2.473558 -2.396818 -5.602418 0.131566 -2.802176 37.596928 -2.337288 -13.027619 2.773891 -2.624901 0.000000 -55.141400
14.888244 17.179325 -9.055222 -173.494045 64.280448 -153.052607 -10.186593 -2.495327 1.691634 -7.311795 1.161098 -44.696491 -2.277538 -1.699631 1.729132 1.829724 9.158639 -3.987192 1.227300 0.000000 -26.242200 9.502012 -2.098817 -3.270150 -3.281510 -3.193703 -5.212055 0.006603 -2.969997 39.992912 -2.405646 -13.412686 2.124486 -2.521801 0.000000 -55.091499
15.065830 17.063108 -9.225994 -174.402683 63.710149 -154.281384 -10.131456 -2.299416 1.594362 -8.202725 1.346093 -45.582342 -2.299942 -1.371750 4.486511 1.973303 10.041990 -3.229809 1.498600 -0.000000 -27.200000 9.697884 -2.131696 -3.355947 -4.164093 -3.959507 -4.979434 -0.130578 -3.141805 42.537596 -2.479520 -13.842275 1.467503 -2.416900 0.000001 -54.720300
